:FULLY-SPECIFIED
:FORCE-ALL-JOINTS-BE-3DOF
:DEGREES
307
root 10.0136 16.7834 6.18365 7.25923 7.4111 5.11294
lfemur 12.4844 2.66679 -28.852
ltibia 1.01964 -0 0
lfoot -14.427 1.31029 0.00140829
ltoes 1.23629 -0 0
rfemur -43.359 17.8778 -0.27842
rtibia 25.6096 -0 0
rfoot -31.7452 -19.3647 0.0418497
rtoes -22.7999 0 0
lowerback -7.90583 -4.94282 -6.89486
upperback -0.604646 -6.05238 1.88376
thorax 4.7241 -3.1638 5.06683
lowerneck -19.249 -4.72653 -12.9489
upperneck 21.7827 -5.88047 12.4479
head 10.9934 -2.31425 5.84962
lclavicle -7.812e-14 -3.25877e-16 2.54805e-31
lhumerus -11.9171 -34.7175 89.9629
lradius 36.4258 -0 0
lwrist 17.7035 0 0
lhand -11.4006 -20.6066 0.000674669
lfingers 7.12502 -0 0
lthumb 14.6346 8.8567 0.00058146
rclavicle -7.812e-14 -3.25877e-16 2.54805e-31
rhumerus -49.3747 6.89082 -83.1921
rradius 35.5351 -0 0
rwrist -20.078 0 0
rhand -29.813 -26.8672 -9.91648e-06
rfingers 7.12502 -0 0
rthumb -3.13686 -56.8239 -9.64068e-06
308
root 10.0016 16.7881 6.33866 7.24277 7.38154 4.9844
lfemur 11.7631 2.6552 -28.6479
ltibia 2.03928 -0 0
lfoot -14.4113 1.48098 0.00276975
ltoes 1.12223 -0 0
rfemur -42.8633 17.7967 0.247164
rtibia 25.6984 -0 0
rfoot -31.5222 -19.0115 0.0823258
rtoes -22.6529 0 0
lowerback -7.87531 -4.86871 -6.78713
upperback -0.610228 -5.96578 1.89789
thorax 4.686 -3.11767 5.03228
lowerneck -19.2528 -4.74827 -12.9598
upperneck 21.7635 -5.91369 12.4772
head 10.994 -2.32659 5.85679
lclavicle -7.66266e-14 -6.51754e-16 5.01117e-31
lhumerus -12.5272 -34.5132 90.1955
lradius 36.2983 -0 0
lwrist 17.611 0 0
lhand -11.4471 -20.6343 0.00132685
lfingers 7.12502 -0 0
lthumb 14.5897 8.83195 0.00114354
rclavicle -7.66266e-14 -6.51754e-16 5.01117e-31
rhumerus -49.1494 7.06805 -83.2397
rradius 35.6592 -0 0
rwrist -20.1245 0 0
rhand -29.816 -26.8608 -1.95024e-05
rfingers 7.12502 -0 0
rthumb -3.1397 -56.8174 -1.896e-05
309
root 9.98955 16.7927 6.49367 7.22636 7.35194 4.85586
lfemur 11.0417 2.64618 -28.4436
ltibia 3.05892 -0 0
lfoot -14.3955 1.65168 0.00408438
ltoes 1.00818 -0 0
rfemur -42.3687 17.7113 0.771747
rtibia 25.7872 -0 0
rfoot -31.2989 -18.6582 0.121426
rtoes -22.5059 0 0
lowerback -7.84467 -4.79465 -6.67938
upperback -0.615788 -5.87917 1.912
thorax 4.64787 -3.07156 4.99771
lowerneck -19.2566 -4.77002 -12.9708
upperneck 21.7442 -5.94691 12.5064
head 10.9945 -2.33893 5.86397
lclavicle -7.51333e-14 -9.77631e-16 7.38935e-31
lhumerus -13.1349 -34.3069 90.4248
lradius 36.1708 -0 0
lwrist 17.5184 0 0
lhand -11.4937 -20.662 0.00195656
lfingers 7.12502 -0 0
lthumb 14.5449 8.80719 0.00168625
rclavicle -7.51333e-14 -9.77631e-16 7.38935e-31
rhumerus -48.9241 7.24547 -83.2866
rradius 35.7834 -0 0
rwrist -20.171 0 0
rhand -29.8189 -26.8543 -2.87578e-05
rfingers 7.12502 -0 0
rthumb -3.14253 -56.8109 -2.7958e-05
310
root 9.97753 16.7973 6.64868 7.21003 7.32231 4.72735
lfemur 10.3204 2.63972 -28.2392
ltibia 4.07856 -0 0
lfoot -14.3798 1.82238 0.00535216
ltoes 0.894119 -0 0
rfemur -41.8751 17.6216 1.29528
rtibia 25.876 -0 0
rfoot -31.0754 -18.3047 0.159149
rtoes -22.3589 0 0
lowerback -7.81388 -4.72066 -6.5716
upperback -0.621325 -5.79257 1.92611
thorax 4.60972 -3.02548 4.9631
lowerneck -19.2604 -4.79177 -12.9818
upperneck 21.7249 -5.98012 12.5357
head 10.995 -2.35126 5.87114
lclavicle -7.364e-14 -1.30351e-15 9.68259e-31
lhumerus -13.74 -34.0986 90.6509
lradius 36.0433 -0 0
lwrist 17.4259 0 0
lhand -11.5402 -20.6897 0.00256377
lfingers 7.12502 -0 0
lthumb 14.5 8.78243 0.00220957
rclavicle -7.364e-14 -1.30351e-15 9.68259e-31
rhumerus -48.6989 7.42306 -83.3328
rradius 35.9075 -0 0
rwrist -20.2175 0 0
rhand -29.8218 -26.8479 -3.76826e-05
rfingers 7.12502 -0 0
rthumb -3.14537 -56.8044 -3.66346e-05
311
root 9.96552 16.8019 6.80369 7.19377 7.29264 4.59885
lfemur 9.59896 2.63584 -28.0348
ltibia 5.0982 -0 0
lfoot -14.3641 1.99308 0.00657308
ltoes 0.780061 -0 0
rfemur -41.3827 17.5276 1.81772
rtibia 25.9648 -0 0
rfoot -30.8517 -17.9511 0.195491
rtoes -22.2119 0 0
lowerback -7.78296 -4.64672 -6.46379
upperback -0.62684 -5.70596 1.94021
thorax 4.57154 -2.97941 4.92846
lowerneck -19.2641 -4.81352 -12.9928
upperneck 21.7057 -6.01331 12.565
head 10.9955 -2.3636 5.87832
lclavicle -7.21467e-14 -1.62939e-15 1.18909e-30
lhumerus -14.3427 -33.8883 90.8737
lradius 35.9158 -0 0
lwrist 17.3333 0 0
lhand -11.5867 -20.7173 0.00314851
lfingers 7.12502 -0 0
lthumb 14.4552 8.75767 0.00271352
rclavicle -7.21467e-14 -1.62939e-15 1.18909e-30
rhumerus -48.4737 7.60084 -83.3783
rradius 36.0317 -0 0
rwrist -20.264 0 0
rhand -29.8248 -26.8414 -4.62769e-05
rfingers 7.12502 -0 0
rthumb -3.1482 -56.7979 -4.49899e-05
312
root 9.9535 16.8066 6.9587 7.17757 7.26294 4.47037
lfemur 8.87756 2.63453 -27.8303
ltibia 6.11784 -0 0
lfoot -14.3484 2.16377 0.00774713
ltoes 0.666003 -0 0
rfemur -40.8915 17.4293 2.33902
rtibia 26.0536 -0 0
rfoot -30.6278 -17.5974 0.230452
rtoes -22.0649 0 0
lowerback -7.75191 -4.57284 -6.35595
upperback -0.632333 -5.61935 1.95429
thorax 4.53333 -2.93338 4.8938
lowerneck -19.2679 -4.83527 -13.0037
upperneck 21.6863 -6.0465 12.5943
head 10.9961 -2.37594 5.88549
lclavicle -7.06533e-14 -1.95526e-15 1.40143e-30
lhumerus -14.9429 -33.6761 91.0934
lradius 35.7883 -0 0
lwrist 17.2408 0 0
lhand -11.6333 -20.745 0.00371075
lfingers 7.12502 -0 0
lthumb 14.4103 8.73292 0.00319809
rclavicle -7.06533e-14 -1.95526e-15 1.40143e-30
rhumerus -48.2486 7.7788 -83.4232
rradius 36.1558 -0 0
rwrist -20.3105 0 0
rhand -29.8277 -26.835 -5.45406e-05
rfingers 7.12502 -0 0
rthumb -3.15103 -56.7914 -5.30238e-05
313
root 9.94149 16.8112 7.1137 7.16144 7.2332 4.34191
lfemur 8.15616 2.63579 -27.6258
ltibia 7.13748 -0 0
lfoot -14.3326 2.33447 0.00887431
ltoes 0.551945 -0 0
rfemur -40.4015 17.3267 2.85913
rtibia 26.1424 -0 0
rfoot -30.4036 -17.2435 0.26403
rtoes -21.9179 0 0
lowerback -7.72071 -4.49901 -6.24808
upperback -0.637803 -5.53274 1.96837
thorax 4.4951 -2.88736 4.8591
lowerneck -19.2717 -4.85702 -13.0147
upperneck 21.667 -6.07968 12.6236
head 10.9966 -2.38828 5.89267
lclavicle -6.916e-14 -2.28114e-15 1.60527e-30
lhumerus -15.5406 -33.462 91.3098
lradius 35.6608 -0 0
lwrist 17.1482 0 0
lhand -11.6798 -20.7727 0.00425051
lfingers 7.12502 -0 0
lthumb 14.3655 8.70816 0.00366328
rclavicle -6.916e-14 -2.28114e-15 1.60527e-30
rhumerus -48.0235 7.95692 -83.4674
rradius 36.28 -0 0
rwrist -20.357 0 0
rhand -29.8306 -26.8285 -6.24738e-05
rfingers 7.12502 -0 0
rthumb -3.15387 -56.7849 -6.07363e-05
314
root 9.92947 16.8158 7.26871 7.14539 7.20342 4.21346
lfemur 7.43477 2.63963 -27.4214
ltibia 8.15711 -0 0
lfoot -14.3169 2.50517 0.00995459
ltoes 0.437887 -0 0
rfemur -39.9127 17.2199 3.378
rtibia 26.2312 -0 0
rfoot -30.1792 -16.8895 0.296222
rtoes -21.7709 0 0
lowerback -7.68938 -4.42525 -6.14018
upperback -0.643252 -5.44613 1.98243
thorax 4.45684 -2.84137 4.82438
lowerneck -19.2754 -4.87877 -13.0257
upperneck 21.6477 -6.11284 12.6529
head 10.9971 -2.40062 5.89984
lclavicle -6.76667e-14 -2.60702e-15 1.80062e-30
lhumerus -16.1359 -33.246 91.523
lradius 35.5333 -0 0
lwrist 17.0556 0 0
lhand -11.7263 -20.8004 0.00476779
lfingers 7.12502 -0 0
lthumb 14.3206 8.6834 0.00410908
rclavicle -6.76667e-14 -2.60702e-15 1.80062e-30
rhumerus -47.7985 8.13522 -83.5108
rradius 36.4042 -0 0
rwrist -20.4035 0 0
rhand -29.8336 -26.8221 -7.00765e-05
rfingers 7.12502 -0 0
rthumb -3.1567 -56.7784 -6.81275e-05
315
root 9.91745 16.8204 7.42372 7.12939 7.17361 4.08503
lfemur 6.71339 2.64603 -27.217
ltibia 9.17675 -0 0
lfoot -14.3011 2.67587 0.010988
ltoes 0.323829 -0 0
rfemur -39.4253 17.1089 3.8956
rtibia 26.32 -0 0
rfoot -29.9547 -16.5353 0.327026
rtoes -21.6239 0 0
lowerback -7.65792 -4.35154 -6.03225
upperback -0.648678 -5.35952 1.99649
thorax 4.41856 -2.7954 4.78963
lowerneck -19.2792 -4.90052 -13.0366
upperneck 21.6283 -6.146 12.6823
head 10.9976 -2.41296 5.90702
lclavicle -6.61733e-14 -2.93289e-15 1.98748e-30
lhumerus -16.7288 -33.0282 91.733
lradius 35.4058 -0 0
lwrist 16.9631 0 0
lhand -11.7728 -20.8281 0.00526258
lfingers 7.12502 -0 0
lthumb 14.2758 8.65864 0.00453551
rclavicle -6.61733e-14 -2.93289e-15 1.98748e-30
rhumerus -47.5734 8.31369 -83.5536
rradius 36.5283 -0 0
rwrist -20.45 0 0
rhand -29.8365 -26.8156 -7.73486e-05
rfingers 7.12502 -0 0
rthumb -3.15954 -56.7719 -7.51974e-05
316
root 9.90544 16.8251 7.57873 7.11347 7.14376 3.95662
lfemur 5.99204 2.655 -27.0127
ltibia 10.1964 -0 0
lfoot -14.2854 2.84657 0.0119744
ltoes 0.209771 -0 0
rfemur -38.9393 16.9938 4.41188
rtibia 26.4088 -0 0
rfoot -29.7299 -16.1811 0.356442
rtoes -21.4769 0 0
lowerback -7.62632 -4.2779 -5.92429
upperback -0.654082 -5.27291 2.01053
thorax 4.38025 -2.74945 4.75484
lowerneck -19.283 -4.92227 -13.0476
upperneck 21.6089 -6.17915 12.7116
head 10.9981 -2.4253 5.91419
lclavicle -6.468e-14 -3.25877e-15 2.16584e-30
lhumerus -17.3192 -32.8086 91.9398
lradius 35.2783 -0 0
lwrist 16.8705 0 0
lhand -11.8194 -20.8558 0.00573488
lfingers 7.12502 -0 0
lthumb 14.2309 8.63388 0.00494256
rclavicle -6.468e-14 -3.25877e-15 2.16584e-30
rhumerus -47.3485 8.49232 -83.5957
rradius 36.6525 -0 0
rwrist -20.4965 0 0
rhand -29.8394 -26.8092 -8.42901e-05
rfingers 7.12502 -0 0
rthumb -3.16237 -56.7654 -8.19459e-05
317
root 9.89342 16.8297 7.73374 7.09762 7.11388 3.82822
lfemur 5.27071 2.66654 -26.8086
ltibia 11.216 -0 0
lfoot -14.2696 3.01727 0.012914
ltoes 0.0957134 -0 0
rfemur -38.4546 16.8744 4.9268
rtibia 26.4976 -0 0
rfoot -29.505 -15.8267 0.384468
rtoes -21.3298 0 0
lowerback -7.59458 -4.20431 -5.8163
upperback -0.659464 -5.18629 2.02457
thorax 4.34191 -2.70353 4.72003
lowerneck -19.2867 -4.94402 -13.0586
upperneck 21.5896 -6.21229 12.741
head 10.9987 -2.43764 5.92137
lclavicle -6.31867e-14 -3.58465e-15 2.33571e-30
lhumerus -17.9072 -32.5872 92.1434
lradius 35.1507 -0 0
lwrist 16.778 0 0
lhand -11.8659 -20.8835 0.00618469
lfingers 7.12502 -0 0
lthumb 14.1861 8.60912 0.00533022
rclavicle -6.31867e-14 -3.58465e-15 2.33571e-30
rhumerus -47.1235 8.67111 -83.6371
rradius 36.7766 -0 0
rwrist -20.5429 0 0
rhand -29.8424 -26.8027 -9.09011e-05
rfingers 7.12502 -0 0
rthumb -3.16521 -56.7589 -8.8373e-05
